<svg width="224" height="24" viewBox="0 0 224 24" fill="none" xmlns="http://www.w3.org/2000/svg">
<path d="M8.61328 19.3398C7.44141 19.3398 6.36719 19.1992 5.39062 18.918C4.41406 18.6289 3.5625 18.207 2.83594 17.6523C2.10938 17.0898 1.53906 16.3984 1.125 15.5781C0.71875 14.7578 0.503906 13.8164 0.480469 12.7539L0.46875 12.6484H4.81641L4.82812 12.7422C4.875 13.4062 5.05859 13.9688 5.37891 14.4297C5.70703 14.8906 6.14453 15.2422 6.69141 15.4844C7.23828 15.7266 7.85938 15.8477 8.55469 15.8477C9.73438 15.8477 10.6289 15.5469 11.2383 14.9453C11.8555 14.3359 12.1641 13.4961 12.1641 12.4258V2.08984H16.6523V12.4727C16.6523 13.8398 16.3477 15.0391 15.7383 16.0703C15.1367 17.1016 14.2383 17.9062 13.043 18.4844C11.8477 19.0547 10.3711 19.3398 8.61328 19.3398ZM24.3281 19.2109C23.2031 19.2109 22.2266 19.0586 21.3984 18.7539C20.5703 18.4414 19.9258 17.9922 19.4648 17.4062C19.0117 16.8125 18.7852 16.0938 18.7852 15.25V15.2383C18.7852 14.4961 18.9805 13.8477 19.3711 13.293C19.7617 12.7383 20.375 12.3047 21.2109 11.9922C22.0547 11.6719 23.1523 11.5 24.5039 11.4766L31.6992 11.3242V13.5039L25.2188 13.6562C24.4531 13.6797 23.8945 13.8086 23.543 14.043C23.1992 14.2695 23.0273 14.582 23.0273 14.9805V15.0039C23.0273 15.5195 23.2695 15.9023 23.7539 16.1523C24.2383 16.3945 24.8711 16.5156 25.6523 16.5156C26.4414 16.5156 27.1211 16.4102 27.6914 16.1992C28.2695 15.9883 28.7148 15.6914 29.0273 15.3086C29.3477 14.918 29.5078 14.4609 29.5078 13.9375V11.0312C29.5078 10.3594 29.2461 9.83984 28.7227 9.47266C28.1992 9.09766 27.4492 8.91016 26.4727 8.91016C25.6211 8.91016 24.9453 9.04297 24.4453 9.30859C23.9531 9.57422 23.6406 9.92969 23.5078 10.375L23.4727 10.4805H19.4062L19.4297 10.3398C19.5781 9.49609 19.9453 8.75 20.5312 8.10156C21.1172 7.45312 21.9141 6.94922 22.9219 6.58984C23.9375 6.22266 25.1523 6.03906 26.5664 6.03906C28.0898 6.03906 29.3945 6.23828 30.4805 6.63672C31.5664 7.02734 32.3984 7.59375 32.9766 8.33594C33.5547 9.07812 33.8438 9.96875 33.8438 11.0078V19H29.5078V16.9492H29.4258C29.1367 17.418 28.7422 17.8203 28.2422 18.1562C27.7422 18.4922 27.1602 18.7539 26.4961 18.9414C25.832 19.1211 25.1094 19.2109 24.3281 19.2109ZM36.3164 19V6.34375H40.6641V8.71094H40.7461C41.1445 7.85156 41.7539 7.19141 42.5742 6.73047C43.4023 6.26953 44.3672 6.03906 45.4688 6.03906C46.25 6.03906 46.9453 6.15234 47.5547 6.37891C48.1719 6.60547 48.6953 6.9375 49.125 7.375C49.5625 7.80469 49.8945 8.32422 50.1211 8.93359H50.2031C50.4922 8.30859 50.8828 7.78125 51.375 7.35156C51.875 6.92188 52.457 6.59766 53.1211 6.37891C53.7852 6.15234 54.5039 6.03906 55.2773 6.03906C56.4258 6.03906 57.3984 6.25781 58.1953 6.69531C59 7.125 59.6133 7.74219 60.0352 8.54688C60.457 9.34375 60.668 10.2969 60.668 11.4062V19H56.3203V12.3555C56.3203 11.6836 56.2188 11.1172 56.0156 10.6562C55.8203 10.1953 55.5195 9.84375 55.1133 9.60156C54.707 9.35938 54.1992 9.23828 53.5898 9.23828C52.957 9.23828 52.4141 9.37109 51.9609 9.63672C51.5156 9.90234 51.1719 10.2812 50.9297 10.7734C50.6953 11.2578 50.5781 11.832 50.5781 12.4961V19H46.4062V12.3203C46.4062 11.6641 46.3047 11.1055 46.1016 10.6445C45.8984 10.1836 45.5938 9.83594 45.1875 9.60156C44.7891 9.35938 44.2852 9.23828 43.6758 9.23828C43.0508 9.23828 42.5117 9.375 42.0586 9.64844C41.6055 9.91406 41.2578 10.293 41.0156 10.7852C40.7812 11.2695 40.6641 11.8477 40.6641 12.5195V19H36.3164ZM63.0938 19V6.34375H67.4414V19H63.0938ZM65.2734 4.87891C64.5938 4.87891 64.0352 4.68359 63.5977 4.29297C63.168 3.90234 62.9531 3.42188 62.9531 2.85156C62.9531 2.27344 63.168 1.79297 63.5977 1.41016C64.0352 1.01953 64.5938 0.824219 65.2734 0.824219C65.9609 0.824219 66.5195 1.01953 66.9492 1.41016C67.3789 1.79297 67.5938 2.27344 67.5938 2.85156C67.5938 3.42188 67.3789 3.90234 66.9492 4.29297C66.5195 4.68359 65.9609 4.87891 65.2734 4.87891ZM77.625 19.3047C75.9375 19.3047 74.4844 19.0469 73.2656 18.5312C72.0469 18.0078 71.1055 17.2578 70.4414 16.2812C69.7852 15.2969 69.457 14.1094 69.457 12.7188V12.707C69.457 11.332 69.793 10.1484 70.4648 9.15625C71.1367 8.15625 72.0703 7.38672 73.2656 6.84766C74.4688 6.30078 75.8672 6.03125 77.4609 6.03906C79.0859 6.04688 80.4883 6.32812 81.668 6.88281C82.8477 7.4375 83.7578 8.21875 84.3984 9.22656C85.0391 10.2344 85.3594 11.418 85.3594 12.7773V13.5977L71.6953 13.5859V11.3477H82.5586L81.293 12.9883V12.2031C81.293 11.5078 81.1445 10.9102 80.8477 10.4102C80.5508 9.91016 80.1211 9.52734 79.5586 9.26172C79.0039 8.98828 78.3359 8.85156 77.5547 8.85156C76.7344 8.85156 76.0312 8.98438 75.4453 9.25C74.8672 9.50781 74.4219 9.89453 74.1094 10.4102C73.8047 10.9258 73.6523 11.5625 73.6523 12.3203V12.9766C73.6523 13.8203 73.8281 14.5039 74.1797 15.0273C74.5312 15.5508 75.0156 15.9297 75.6328 16.1641C76.25 16.3984 76.9609 16.5156 77.7656 16.5156C78.2891 16.5156 78.7734 16.457 79.2188 16.3398C79.6641 16.2227 80.0508 16.0586 80.3789 15.8477C80.707 15.6367 80.9531 15.3867 81.1172 15.0977L81.1523 15.0273H85.1836L85.1484 15.1562C84.9688 15.7891 84.6602 16.3633 84.2227 16.8789C83.793 17.3867 83.25 17.8242 82.5938 18.1914C81.9453 18.5508 81.1992 18.8242 80.3555 19.0117C79.5195 19.207 78.6094 19.3047 77.625 19.3047ZM99.5039 19V5.53516H92.8359V2.08984H110.66V5.53516H103.992V19H99.5039ZM110.707 19V6.34375L115.055 6.36719V8.92188H115.137C115.387 8.01562 115.852 7.31641 116.531 6.82422C117.211 6.33203 118.059 6.08594 119.074 6.08594C119.316 6.08594 119.551 6.10156 119.777 6.13281C120.004 6.16406 120.207 6.19922 120.387 6.23828V9.67188C120.16 9.61719 119.91 9.57422 119.637 9.54297C119.363 9.51172 119.086 9.49609 118.805 9.49609C118.039 9.49609 117.375 9.63281 116.812 9.90625C116.258 10.1797 115.824 10.5898 115.512 11.1367C115.207 11.6836 115.055 12.375 115.055 13.2109V19H110.707ZM129.141 19.3047C127.453 19.3047 126 19.0469 124.781 18.5312C123.562 18.0078 122.621 17.2578 121.957 16.2812C121.301 15.2969 120.973 14.1094 120.973 12.7188V12.707C120.973 11.332 121.309 10.1484 121.98 9.15625C122.652 8.15625 123.586 7.38672 124.781 6.84766C125.984 6.30078 127.383 6.03125 128.977 6.03906C130.602 6.04688 132.004 6.32812 133.184 6.88281C134.363 7.4375 135.273 8.21875 135.914 9.22656C136.555 10.2344 136.875 11.418 136.875 12.7773V13.5977L123.211 13.5859V11.3477H134.074L132.809 12.9883V12.2031C132.809 11.5078 132.66 10.9102 132.363 10.4102C132.066 9.91016 131.637 9.52734 131.074 9.26172C130.52 8.98828 129.852 8.85156 129.07 8.85156C128.25 8.85156 127.547 8.98438 126.961 9.25C126.383 9.50781 125.938 9.89453 125.625 10.4102C125.32 10.9258 125.168 11.5625 125.168 12.3203V12.9766C125.168 13.8203 125.344 14.5039 125.695 15.0273C126.047 15.5508 126.531 15.9297 127.148 16.1641C127.766 16.3984 128.477 16.5156 129.281 16.5156C129.805 16.5156 130.289 16.457 130.734 16.3398C131.18 16.2227 131.566 16.0586 131.895 15.8477C132.223 15.6367 132.469 15.3867 132.633 15.0977L132.668 15.0273H136.699L136.664 15.1562C136.484 15.7891 136.176 16.3633 135.738 16.8789C135.309 17.3867 134.766 17.8242 134.109 18.1914C133.461 18.5508 132.715 18.8242 131.871 19.0117C131.035 19.207 130.125 19.3047 129.141 19.3047ZM141.199 23.2539C140.746 23.2539 140.316 23.2266 139.91 23.1719C139.504 23.125 139.148 23.0625 138.844 22.9844V20.0312C139.094 20.0859 139.371 20.1289 139.676 20.1602C139.98 20.1992 140.289 20.2188 140.602 20.2188C141.172 20.2188 141.664 20.1367 142.078 19.9727C142.492 19.8164 142.828 19.5547 143.086 19.1875L143.285 18.8242L137.215 6.34375H141.809L146.051 16.1289L145.406 15.4609H146.273L145.617 16.1289L149.648 6.34375H154.148L148.57 18.2852C147.984 19.5039 147.355 20.4766 146.684 21.2031C146.012 21.9297 145.23 22.4531 144.34 22.7734C143.457 23.0938 142.41 23.2539 141.199 23.2539ZM160.84 19L154.77 6.34375H159.305L163.184 15.3789H163.266L167.027 6.34375H171.48L165.492 19H160.84ZM177.586 19.2109C176.461 19.2109 175.484 19.0586 174.656 18.7539C173.828 18.4414 173.184 17.9922 172.723 17.4062C172.27 16.8125 172.043 16.0938 172.043 15.25V15.2383C172.043 14.4961 172.238 13.8477 172.629 13.293C173.02 12.7383 173.633 12.3047 174.469 11.9922C175.312 11.6719 176.41 11.5 177.762 11.4766L184.957 11.3242V13.5039L178.477 13.6562C177.711 13.6797 177.152 13.8086 176.801 14.043C176.457 14.2695 176.285 14.582 176.285 14.9805V15.0039C176.285 15.5195 176.527 15.9023 177.012 16.1523C177.496 16.3945 178.129 16.5156 178.91 16.5156C179.699 16.5156 180.379 16.4102 180.949 16.1992C181.527 15.9883 181.973 15.6914 182.285 15.3086C182.605 14.918 182.766 14.4609 182.766 13.9375V11.0312C182.766 10.3594 182.504 9.83984 181.98 9.47266C181.457 9.09766 180.707 8.91016 179.73 8.91016C178.879 8.91016 178.203 9.04297 177.703 9.30859C177.211 9.57422 176.898 9.92969 176.766 10.375L176.73 10.4805H172.664L172.688 10.3398C172.836 9.49609 173.203 8.75 173.789 8.10156C174.375 7.45312 175.172 6.94922 176.18 6.58984C177.195 6.22266 178.41 6.03906 179.824 6.03906C181.348 6.03906 182.652 6.23828 183.738 6.63672C184.824 7.02734 185.656 7.59375 186.234 8.33594C186.812 9.07812 187.102 9.96875 187.102 11.0078V19H182.766V16.9492H182.684C182.395 17.418 182 17.8203 181.5 18.1562C181 18.4922 180.418 18.7539 179.754 18.9414C179.09 19.1211 178.367 19.2109 177.586 19.2109ZM195.152 19.3047C193.98 19.3047 192.973 19.0859 192.129 18.6484C191.285 18.2109 190.637 17.5742 190.184 16.7383C189.73 15.9023 189.504 14.8906 189.504 13.7031V6.34375H193.852V12.8008C193.852 13.8633 194.109 14.6797 194.625 15.25C195.148 15.8125 195.918 16.0938 196.934 16.0938C197.457 16.0938 197.93 16.0156 198.352 15.8594C198.781 15.7031 199.152 15.4766 199.465 15.1797C199.777 14.875 200.016 14.5078 200.18 14.0781C200.352 13.6484 200.438 13.1641 200.438 12.625V6.34375H204.773V19H200.438V16.5391H200.344C200.055 17.1016 199.66 17.5938 199.16 18.0156C198.668 18.4297 198.086 18.75 197.414 18.9766C196.742 19.1953 195.988 19.3047 195.152 19.3047ZM213.445 19.293C212.102 19.293 210.926 19.0195 209.918 18.4727C208.918 17.9258 208.141 17.1562 207.586 16.1641C207.031 15.1719 206.754 14.0117 206.754 12.6836V12.6602C206.754 11.3242 207.031 10.1602 207.586 9.16797C208.141 8.17578 208.918 7.40625 209.918 6.85938C210.926 6.3125 212.102 6.03906 213.445 6.03906C214.32 6.03906 215.105 6.14844 215.801 6.36719C216.496 6.58594 217.102 6.89453 217.617 7.29297C218.133 7.68359 218.543 8.14062 218.848 8.66406H218.941V1.97266H223.277V19H218.941V16.6914H218.848C218.543 17.207 218.133 17.6602 217.617 18.0508C217.109 18.4414 216.504 18.7461 215.801 18.9648C215.105 19.1836 214.32 19.293 213.445 19.293ZM215.027 16.1875C215.824 16.1875 216.512 16.0469 217.09 15.7656C217.676 15.4766 218.129 15.0703 218.449 14.5469C218.77 14.0234 218.93 13.4023 218.93 12.6836V12.6602C218.93 11.9414 218.77 11.3203 218.449 10.7969C218.129 10.2734 217.676 9.87109 217.09 9.58984C216.512 9.30078 215.824 9.15625 215.027 9.15625C214.238 9.15625 213.555 9.29688 212.977 9.57812C212.398 9.85156 211.953 10.25 211.641 10.7734C211.328 11.2969 211.172 11.9258 211.172 12.6602V12.6836C211.172 13.4102 211.328 14.0391 211.641 14.5703C211.953 15.0938 212.398 15.4961 212.977 15.7773C213.555 16.0508 214.238 16.1875 215.027 16.1875Z" fill="white"/>
</svg>
