<svg width="32" height="32" viewBox="0 0 32 32" fill="none" xmlns="http://www.w3.org/2000/svg">
<rect width="31.88" height="32" rx="15.94" fill="black"/>
<path d="M8.75195 23.3516C7.95768 23.3516 7.24479 23.2409 6.61328 23.0195C5.98177 22.7982 5.44141 22.4792 4.99219 22.0625C4.54297 21.6393 4.19792 21.1315 3.95703 20.5391C3.71615 19.9401 3.59245 19.2695 3.58594 18.5273L3.57617 18.4785H7.0332V18.5176C7.03971 18.8822 7.10807 19.2012 7.23828 19.4746C7.375 19.7415 7.56706 19.9499 7.81445 20.0996C8.06836 20.2428 8.36458 20.3145 8.70312 20.3145C9.24349 20.3145 9.65039 20.1517 9.92383 19.8262C10.2038 19.4941 10.3438 19.0156 10.3438 18.3906V8.9082H13.9277V18.4199C13.9277 19.4551 13.7227 20.3405 13.3125 21.0762C12.9089 21.8118 12.3197 22.375 11.5449 22.7656C10.7767 23.1562 9.8457 23.3516 8.75195 23.3516ZM20.3047 23V11.7891H16.2812V8.9082H27.9121V11.7891H23.8887V23H20.3047Z" fill="white"/>
</svg>
