<svg width="37" height="55" viewBox="0 0 37 55" fill="none" xmlns="http://www.w3.org/2000/svg">
<path d="M18.333 0C28.4604 0 36.6668 8.46139 36.667 18.9043V36.042C36.6669 46.485 28.4604 55 18.333 55C8.20572 54.9998 6.28144e-05 46.4849 0 36.042V18.9043C0.000146252 8.4615 8.20577 0.000180615 18.333 0ZM18.333 4.55176C10.6468 4.55194 4.41421 10.9785 4.41406 18.9043V36.042C4.41413 43.9678 10.6467 50.3944 18.333 50.3945C26.0195 50.3945 32.2519 43.9679 32.252 36.042V18.9043C32.2518 10.9784 26.0194 4.55176 18.333 4.55176ZM18.333 10.6943C20.0384 10.6943 21.3887 11.8854 21.3887 13.3896V20.2217C21.3886 21.7259 20.0384 22.917 18.333 22.917C16.6988 22.9168 15.2774 21.7258 15.2773 20.2217V13.3896C15.2773 11.9481 16.6277 10.6945 18.333 10.6943Z" fill="url(#paint0_linear_14_4)"/>
<defs>
<linearGradient id="paint0_linear_14_4" x1="6.32034" y1="16.6599" x2="34.5482" y2="16.9908" gradientUnits="userSpaceOnUse">
<stop stop-color="#EEEEEE"/>
<stop offset="1" stop-color="white"/>
</linearGradient>
</defs>
</svg>
